<svg xmlns="http://www.w3.org/2000/svg" xmlns:xlink="http://www.w3.org/1999/xlink" width="375" height="812" viewBox="0 0 375 812">
  <defs>
    <pattern id="pattern" preserveAspectRatio="xMidYMid slice" width="100%" height="100%" viewBox="0 0 3538 4422">
      <image width="3538" height="4422" xlink:href="Landing%20Page%20-%202-image.jpg"/>
    </pattern>
    <clipPath id="clip-Landing_Page_2">
      <rect width="375" height="812"/>
    </clipPath>
  </defs>
  <g id="Landing_Page_2" data-name="Landing Page – 2" clip-path="url(#clip-Landing_Page_2)">
    <rect width="375" height="812" fill="#fff"/>
    <g id="Time_Battery_Network" data-name="Time ,Battery, Network" transform="translate(16 5.5)">
      <g id="Icon_material-network-cell" data-name="Icon material-network-cell" transform="translate(269.625 2)">
        <path id="Path_4" data-name="Path 4" d="M3,19.5H19.5V3Z" transform="translate(-3 -3)" fill="rgba(0,0,0,0.3)"/>
        <path id="Path_5" data-name="Path 5" d="M15.375,10.5,3,22.875H15.375Z" transform="translate(-3 -6.375)"/>
      </g>
      <g id="Icon_material-network-wifi" data-name="Icon material-network-wifi" transform="translate(299.167 0.75)">
        <path id="Path_6" data-name="Path 6" d="M11.718,22.24l11.159-13.9A18.529,18.529,0,0,0,11.708,4.5,18.5,18.5,0,0,0,.54,8.338L11.7,22.24l.01.01Z" transform="translate(-0.54 -4.5)" fill="rgba(0,0,0,0.3)"/>
        <path id="Path_7" data-name="Path 7" d="M5.3,14.83l8.117,10.113.01.01.01-.01L21.548,14.83A13.411,13.411,0,0,0,13.422,12,13.411,13.411,0,0,0,5.3,14.83Z" transform="translate(-2.254 -7.203)"/>
      </g>
      <g id="Icon_material-battery-80" data-name="Icon material-battery-80" transform="translate(334.75)">
        <path id="Path_8" data-name="Path 8" d="M19.75,6.08a1.236,1.236,0,0,0-1.23-1.23H16.975V3h-3.7V4.85H11.73A1.236,1.236,0,0,0,10.5,6.08V9.475h9.25Z" transform="translate(-10.5 -3)" fill="rgba(0,0,0,0.3)"/>
        <path id="Path_9" data-name="Path 9" d="M10.5,13.5V24.295a1.236,1.236,0,0,0,1.23,1.23h6.78a1.238,1.238,0,0,0,1.24-1.23V13.5Z" transform="translate(-10.5 -7.025)"/>
      </g>
      <text id="_10:15" data-name="10:15" transform="translate(0 1.5)" font-size="15" font-family="YuGothic-Bold, Yu Gothic" font-weight="700"><tspan x="0" y="15">10:15</tspan></text>
    </g>
    <g id="search_engine_header_tab" data-name="search engine header tab" transform="translate(21 40)">
      <g id="Icon_feather-home" data-name="Icon feather-home" transform="translate(0 1.778)">
        <path id="Path_10" data-name="Path 10" d="M4.5,7.278,10,3l5.5,4.278V14a1.222,1.222,0,0,1-1.222,1.222H5.722A1.222,1.222,0,0,1,4.5,14Z" transform="translate(-4.5 -3)" fill="none" stroke="#000" stroke-linecap="round" stroke-linejoin="round" stroke-width="1"/>
        <path id="Path_11" data-name="Path 11" d="M13.5,24.111V18h3.667v6.111" transform="translate(-9.833 -11.889)" fill="none" stroke="#000" stroke-linecap="round" stroke-linejoin="round" stroke-width="1"/>
      </g>
      <g id="Rectangle_1" data-name="Rectangle 1" transform="translate(27)" fill="#fff" stroke="#000" stroke-width="1">
        <rect width="256" height="16" rx="8" stroke="none"/>
        <rect x="0.5" y="0.5" width="255" height="15" rx="7.5" fill="none"/>
      </g>
      <g id="Icon_feather-plus-square" data-name="Icon feather-plus-square" transform="translate(299 3)">
        <path id="Path_12" data-name="Path 12" d="M5.833,4.5h9.333A1.258,1.258,0,0,1,16.5,5.667v8.167A1.258,1.258,0,0,1,15.167,15H5.833A1.258,1.258,0,0,1,4.5,13.833V5.667A1.258,1.258,0,0,1,5.833,4.5Z" transform="translate(-4.5 -4.5)" fill="none" stroke="#000" stroke-linecap="round" stroke-linejoin="round" stroke-width="1"/>
        <path id="Path_13" data-name="Path 13" d="M18,12v7.2" transform="translate(-12 -10.35)" fill="none" stroke="#000" stroke-linecap="round" stroke-linejoin="round" stroke-width="1"/>
        <path id="Path_14" data-name="Path 14" d="M12,18h7.2" transform="translate(-9.6 -12.75)" fill="none" stroke="#000" stroke-linecap="round" stroke-linejoin="round" stroke-width="1"/>
      </g>
      <path id="Icon_open-arrow-circle-top" data-name="Icon open-arrow-circle-top" d="M7.4,0a7.4,7.4,0,1,0,7.4,7.4A7.4,7.4,0,0,0,7.4,0Zm0,1.85L12.95,7.4H9.25v5.55H5.55V7.4H1.85Z" transform="translate(324.2)" fill="#ff0a0a"/>
      <path id="Icon_awesome-lock" data-name="Icon awesome-lock" d="M7.292,4.083H6.854V2.771a2.771,2.771,0,0,0-5.542,0V4.083H.875A.875.875,0,0,0,0,4.958v3.5a.875.875,0,0,0,.875.875H7.292a.875.875,0,0,0,.875-.875v-3.5A.875.875,0,0,0,7.292,4.083Zm-1.9,0H2.771V2.771a1.312,1.312,0,0,1,2.625,0Z" transform="translate(35.583 3.667)"/>
      <text id="fijoli.com" transform="translate(51 3)" font-size="10" font-family="AdobeFanHeitiStd-Bold, Adobe Fan Heiti Std" font-weight="700"><tspan x="0" y="9">fijoli.com</tspan></text>
    </g>
    <g id="Rectangle_1-2" data-name="Rectangle 1" transform="translate(0 72)" stroke="#707070" stroke-width="1" fill="url(#pattern)">
      <rect width="375" height="650" stroke="none"/>
      <rect x="0.5" y="0.5" width="374" height="649" fill="none"/>
    </g>
    <g id="Path_1" data-name="Path 1" transform="translate(0 552)" fill="#fff">
      <path d="M 374.49658203125 311.5 L 0.4999910295009613 311.5 L 0.4999910295009613 122.9497528076172 C 0.4999910295009613 114.8593978881836 1.308341026306152 106.774299621582 2.902540922164917 98.91905212402344 C 4.456191062927246 91.26370239257813 6.774490833282471 83.73365020751953 9.792941093444824 76.53810119628906 C 12.75664138793945 69.47315216064453 16.42489051818848 62.65895080566406 20.69584083557129 56.28485107421875 C 24.92619132995605 49.97124862670898 29.78449058532715 44.03419876098633 35.1357421875 38.63864898681641 C 40.48694229125977 33.24314880371094 46.37514114379883 28.34474945068359 52.63674163818359 24.0794506072998 C 58.9582405090332 19.77339935302734 65.71608734130859 16.07500076293945 72.72264099121094 13.08695030212402 C 79.85854339599609 10.04374980926514 87.32608795166016 7.706500053405762 94.91789245605469 6.140100002288818 C 102.7079391479492 4.532849788665771 110.7258377075195 3.717900037765503 118.7489395141602 3.717900037765503 L 312.4971923828125 3.717900037765503 C 337.7568969726563 3.717900037765503 355.9256896972656 -6.498449802398682 366.4989013671875 -26.64739990234375 C 371.1517028808594 -35.51399993896484 373.4075317382813 -44.65362548828125 374.49658203125 -51.71358489990234 L 374.49658203125 311.5 Z" stroke="none"/>
      <path d="M 373.99658203125 -46.26620483398438 C 372.6826171875 -40.190673828125 370.5142822265625 -33.22332763671875 366.941650390625 -26.41510009765625 C 356.2752380371094 -6.088546752929688 337.9574279785156 4.217849731445313 312.4971923828125 4.217849731445313 L 118.7489318847656 4.217849731445313 C 110.7597045898438 4.217849731445313 102.7757873535156 5.029342651367188 95.01895141601563 6.629745483398438 C 87.45968627929688 8.189407348632813 80.02407836914063 10.51664733886719 72.91879272460938 13.54679870605469 C 65.94204711914063 16.52215576171875 59.21295166015625 20.20484924316406 52.91824340820313 24.49264526367188 C 46.68295288085938 28.74000549316406 40.81948852539063 33.61784362792969 35.49075317382813 38.99070739746094 C 30.16189575195313 44.36369323730469 25.32388305664063 50.27589416503906 21.1112060546875 56.56315612792969 C 16.858154296875 62.91055297851563 13.20529174804688 69.69619750976563 10.2540283203125 76.73155212402344 C 7.24822998046875 83.8968505859375 4.939697265625 91.39524841308594 3.392578125 99.01849365234375 C 1.80499267578125 106.8410949707031 1 114.8927459716797 1 122.9497528076172 L 1 311 L 373.99658203125 311 L 373.99658203125 -46.26620483398438 M 374.99658203125 -64 C 374.99658203125 -64 375.0041809082031 -63.67279052734375 374.99658203125 -63.06414794921875 L 374.99658203125 -64 Z M 374.99658203125 -63.06414794921875 L 374.99658203125 312 L 0 312 L 0 122.9497528076172 C 0 56.82365417480469 53.16567993164063 3.217849731445313 118.7489318847656 3.217849731445313 C 118.7489318847656 3.217849731445313 248.4352416992188 3.217849731445313 312.4971923828125 3.217849731445313 C 372.0899353027344 3.217849731445313 374.8952026367188 -54.94839477539063 374.99658203125 -63.06414794921875 Z" stroke="none" fill="#707070"/>
    </g>
    <g id="Component_14_5" data-name="Component 14 – 5" transform="translate(145.5 731)">
      <rect id="Rectangle_2" data-name="Rectangle 2" width="84" height="11" fill="#070000"/>
    </g>
    <g id="Component_12_9" data-name="Component 12 – 9" transform="translate(225.5 712)">
      <ellipse id="Ellipse_7" data-name="Ellipse 7" cx="39.5" cy="23.5" rx="39.5" ry="23.5" fill="#eb0d33"/>
      <text id="Sign_Up" data-name="Sign Up" transform="translate(0 13)" fill="#fff" stroke="rgba(0,0,0,0)" stroke-width="1" font-size="16" font-family="MalgunGothic, Malgun Gothic"><tspan x="10.508" y="17">Sign Up</tspan></text>
    </g>
    <g id="Component_16_5" data-name="Component 16 – 5" transform="translate(40 640)">
      <text id="Try_new_Fit_Recipes" data-name="Try new Fit Recipes" font-size="24" font-family="ProstoSans-Bold, Prosto Sans" font-weight="700"><tspan x="15.996" y="23">Try new Fit Recipes</tspan></text>
    </g>
    <g id="Component_3_13" data-name="Component 3 – 13" transform="translate(8 80)">
      <text id="fijoli" fill="#fff" stroke="rgba(0,0,0,0)" stroke-width="1" font-size="31" font-family="AltoneTrial-Regular, Altone Trial"><tspan x="13.593" y="24">fijoli</tspan></text>
    </g>
    <g id="Component_12_10" data-name="Component 12 – 10" transform="translate(156.5 781)">
      <ellipse id="Ellipse_1" data-name="Ellipse 1" cx="5" cy="5.5" rx="5" ry="5.5" transform="translate(0 0)"/>
      <ellipse id="Ellipse_2" data-name="Ellipse 2" cx="5" cy="5.5" rx="5" ry="5.5" transform="translate(13 0)" fill="#86858a"/>
      <ellipse id="Ellipse_3" data-name="Ellipse 3" cx="5" cy="5.5" rx="5" ry="5.5" transform="translate(26 0)"/>
      <ellipse id="Ellipse_4" data-name="Ellipse 4" cx="5" cy="5.5" rx="5" ry="5.5" transform="translate(39 0)"/>
      <ellipse id="Ellipse_8" data-name="Ellipse 8" cx="5" cy="5.5" rx="5" ry="5.5" transform="translate(52 0)"/>
    </g>
    <ellipse id="Ellipse_1-2" data-name="Ellipse 1" cx="5" cy="5.5" rx="5" ry="5.5" transform="translate(156.5 781)"/>
    <ellipse id="Ellipse_2-2" data-name="Ellipse 2" cx="5" cy="5.5" rx="5" ry="5.5" transform="translate(169.5 781)"/>
    <ellipse id="Ellipse_3-2" data-name="Ellipse 3" cx="5" cy="5.5" rx="5" ry="5.5" transform="translate(182.5 781)" fill="#86858a"/>
    <ellipse id="Ellipse_4-2" data-name="Ellipse 4" cx="5" cy="5.5" rx="5" ry="5.5" transform="translate(195.5 781)"/>
    <ellipse id="Ellipse_8-2" data-name="Ellipse 8" cx="5" cy="5.5" rx="5" ry="5.5" transform="translate(208.5 781)"/>
    <g id="Component_10_10" data-name="Component 10 – 10" transform="translate(70.5 712)">
      <ellipse id="Ellipse_6" data-name="Ellipse 6" cx="39.5" cy="23.5" rx="39.5" ry="23.5" fill="#eb0d33"/>
      <text id="Login" transform="translate(0 11)" fill="#fff" stroke="rgba(0,0,0,0)" stroke-width="1" font-size="16" font-family="MalgunGothic, Malgun Gothic"><tspan x="19.457" y="17">Login</tspan></text>
    </g>
  </g>
</svg>
